<?xml version="1.0" encoding="utf-8" standalone="no"?>
<!DOCTYPE svg PUBLIC "-//W3C//DTD SVG 1.1//EN"
  "http://www.w3.org/Graphics/SVG/1.1/DTD/svg11.dtd">
<!-- Created with matplotlib (http://matplotlib.org/) -->
<svg height="576pt" version="1.1" viewBox="0 0 1008 576" width="1008pt" xmlns="http://www.w3.org/2000/svg" xmlns:xlink="http://www.w3.org/1999/xlink">
 <defs>
  <style type="text/css">
*{stroke-linecap:butt;stroke-linejoin:round;}
  </style>
 </defs>
 <g id="figure_1">
  <g id="patch_1">
   <path d="M 0 576 
L 1008 576 
L 1008 0 
L 0 0 
z
" style="fill:#ffffff;"/>
  </g>
  <g id="axes_1">
   <g id="patch_2">
    <path clip-path="url(#p3271c30921)" d="M 126 494.94 
L 126.77392 494.94 
L 126.77392 476.82 
L 126 476.82 
z
" style="fill:#4c72b0;"/>
   </g>
   <g id="patch_3">
    <path clip-path="url(#p3271c30921)" d="M 126 458.7 
L 127.781153 458.7 
L 127.781153 440.58 
L 126 440.58 
z
" style="fill:#4c72b0;"/>
   </g>
   <g id="patch_4">
    <path clip-path="url(#p3271c30921)" d="M 126 422.46 
L 130.829004 422.46 
L 130.829004 404.34 
L 126 404.34 
z
" style="fill:#4c72b0;"/>
   </g>
   <g id="patch_5">
    <path clip-path="url(#p3271c30921)" d="M 126 386.22 
L 132.534253 386.22 
L 132.534253 368.1 
L 126 368.1 
z
" style="fill:#4c72b0;"/>
   </g>
   <g id="patch_6">
    <path clip-path="url(#p3271c30921)" d="M 126 349.98 
L 140.879092 349.98 
L 140.879092 331.86 
L 126 331.86 
z
" style="fill:#4c72b0;"/>
   </g>
   <g id="patch_7">
    <path clip-path="url(#p3271c30921)" d="M 126 313.74 
L 145.659227 313.74 
L 145.659227 295.62 
L 126 295.62 
z
" style="fill:#4c72b0;"/>
   </g>
   <g id="patch_8">
    <path clip-path="url(#p3271c30921)" d="M 126 277.5 
L 145.846108 277.5 
L 145.846108 259.38 
L 126 259.38 
z
" style="fill:#4c72b0;"/>
   </g>
   <g id="patch_9">
    <path clip-path="url(#p3271c30921)" d="M 126 241.26 
L 148.89108 241.26 
L 148.89108 223.14 
L 126 223.14 
z
" style="fill:#4c72b0;"/>
   </g>
   <g id="patch_10">
    <path clip-path="url(#p3271c30921)" d="M 126 205.02 
L 153.819024 205.02 
L 153.819024 186.9 
L 126 186.9 
z
" style="fill:#4c72b0;"/>
   </g>
   <g id="patch_11">
    <path clip-path="url(#p3271c30921)" d="M 126 168.78 
L 160.738118 168.78 
L 160.738118 150.66 
L 126 150.66 
z
" style="fill:#4c72b0;"/>
   </g>
   <g id="patch_12">
    <path clip-path="url(#p3271c30921)" d="M 126 132.54 
L 250.525245 132.54 
L 250.525245 114.42 
L 126 114.42 
z
" style="fill:#4c72b0;"/>
   </g>
   <g id="patch_13">
    <path clip-path="url(#p3271c30921)" d="M 126 96.3 
L 870 96.3 
L 870 78.18 
L 126 78.18 
z
" style="fill:#4c72b0;"/>
   </g>
   <g id="text_1">
    <g id="patch_14">
     <path d="M 120.96 480.4398 
L 327.765 480.4398 
L 327.765 459.239175 
L 120.96 459.239175 
z
" style="fill:none;opacity:0;"/>
    </g>
    <!-- Non-Transport - Omni Buses: 19,352 -->
    <defs>
     <path d="M 4.890625 0 
L 19.875 71.578125 
L 29.15625 71.578125 
L 41.21875 44.734375 
Q 46.734375 32.421875 49.953125 24.03125 
Q 51.8125 19.140625 54.25 10.84375 
Q 55.5625 19.875 57.5625 29.5 
L 66.359375 71.578125 
L 75.6875 71.578125 
L 60.75 0 
L 51.265625 0 
L 33.5 41.359375 
Q 28.765625 52.296875 26.125 60.640625 
Q 25.390625 53.65625 23.296875 43.5 
L 14.203125 0 
z
" id="Arial-ItalicMT-4e"/>
     <path d="M 4.890625 19.671875 
Q 4.890625 34.859375 13.8125 44.828125 
Q 21.1875 53.03125 33.15625 53.03125 
Q 42.53125 53.03125 48.265625 47.171875 
Q 54 41.3125 54 31.34375 
Q 54 22.40625 50.390625 14.71875 
Q 46.78125 7.03125 40.109375 2.921875 
Q 33.453125 -1.171875 26.078125 -1.171875 
Q 20.015625 -1.171875 15.0625 1.40625 
Q 10.109375 4 7.5 8.734375 
Q 4.890625 13.484375 4.890625 19.671875 
z
M 13.71875 20.5625 
Q 13.71875 13.234375 17.234375 9.453125 
Q 20.75 5.671875 26.171875 5.671875 
Q 29 5.671875 31.78125 6.8125 
Q 34.578125 7.953125 36.96875 10.296875 
Q 39.359375 12.640625 41.03125 15.640625 
Q 42.71875 18.65625 43.75 22.125 
Q 45.265625 26.953125 45.265625 31.390625 
Q 45.265625 38.421875 41.71875 42.296875 
Q 38.1875 46.1875 32.8125 46.1875 
Q 28.65625 46.1875 25.234375 44.203125 
Q 21.828125 42.234375 19.0625 38.421875 
Q 16.3125 34.625 15.015625 29.5625 
Q 13.71875 24.515625 13.71875 20.5625 
z
" id="Arial-ItalicMT-6f"/>
     <path d="M 3.328125 0 
L 14.15625 51.859375 
L 22.171875 51.859375 
L 20.265625 42.828125 
Q 25.484375 48.140625 30.03125 50.578125 
Q 34.578125 53.03125 39.3125 53.03125 
Q 45.609375 53.03125 49.1875 49.609375 
Q 52.78125 46.1875 52.78125 40.484375 
Q 52.78125 37.59375 51.515625 31.390625 
L 44.921875 0 
L 36.078125 0 
L 42.96875 32.859375 
Q 44 37.640625 44 39.9375 
Q 44 42.53125 42.21875 44.140625 
Q 40.4375 45.75 37.0625 45.75 
Q 30.28125 45.75 24.96875 40.859375 
Q 19.671875 35.984375 17.1875 24.125 
L 12.15625 0 
z
" id="Arial-ItalicMT-6e"/>
     <path d="M 4.640625 21.484375 
L 6.5 30.328125 
L 33.453125 30.328125 
L 31.640625 21.484375 
z
" id="Arial-ItalicMT-2d"/>
     <path d="M 22.703125 0 
L 35.9375 63.421875 
L 12.453125 63.421875 
L 14.15625 71.578125 
L 70.515625 71.578125 
L 68.796875 63.421875 
L 45.515625 63.421875 
L 32.28125 0 
z
" id="Arial-ItalicMT-54"/>
     <path d="M 3.328125 0 
L 14.15625 51.859375 
L 21.96875 51.859375 
L 19.78125 41.265625 
Q 23.78125 47.265625 27.609375 50.140625 
Q 31.453125 53.03125 35.453125 53.03125 
Q 38.09375 53.03125 41.9375 51.125 
L 38.328125 42.921875 
Q 36.03125 44.578125 33.296875 44.578125 
Q 28.65625 44.578125 23.765625 39.40625 
Q 18.890625 34.234375 16.109375 20.796875 
L 11.71875 0 
z
" id="Arial-ItalicMT-72"/>
     <path d="M 38.28125 6.453125 
Q 33.6875 2.484375 29.4375 0.65625 
Q 25.203125 -1.171875 20.359375 -1.171875 
Q 13.1875 -1.171875 8.78125 3.046875 
Q 4.390625 7.28125 4.390625 13.875 
Q 4.390625 18.21875 6.359375 21.5625 
Q 8.34375 24.90625 11.609375 26.921875 
Q 14.890625 28.953125 19.625 29.828125 
Q 22.609375 30.421875 30.9375 30.765625 
Q 39.265625 31.109375 42.875 32.515625 
Q 43.890625 36.140625 43.890625 38.53125 
Q 43.890625 41.609375 41.65625 43.359375 
Q 38.578125 45.796875 32.671875 45.796875 
Q 27.09375 45.796875 23.546875 43.328125 
Q 20.015625 40.875 18.40625 36.328125 
L 9.46875 37.109375 
Q 12.203125 44.828125 18.140625 48.921875 
Q 24.078125 53.03125 33.109375 53.03125 
Q 42.71875 53.03125 48.34375 48.4375 
Q 52.640625 45.015625 52.640625 39.546875 
Q 52.640625 35.40625 51.421875 29.9375 
L 48.53125 17.046875 
Q 47.171875 10.890625 47.171875 7.03125 
Q 47.171875 4.59375 48.25 0 
L 39.3125 0 
Q 38.578125 2.546875 38.28125 6.453125 
z
M 41.546875 26.265625 
Q 39.703125 25.53125 37.578125 25.140625 
Q 35.453125 24.75 30.46875 24.3125 
Q 22.75 23.640625 19.578125 22.578125 
Q 16.40625 21.53125 14.796875 19.234375 
Q 13.1875 16.9375 13.1875 14.15625 
Q 13.1875 10.453125 15.75 8.0625 
Q 18.3125 5.671875 23.046875 5.671875 
Q 27.4375 5.671875 31.484375 7.984375 
Q 35.546875 10.296875 37.890625 14.453125 
Q 40.234375 18.609375 41.546875 26.265625 
z
" id="Arial-ItalicMT-61"/>
     <path d="M 4.15625 17.71875 
L 12.984375 18.265625 
Q 12.984375 14.453125 14.15625 11.765625 
Q 15.328125 9.078125 18.46875 7.375 
Q 21.625 5.671875 25.828125 5.671875 
Q 31.6875 5.671875 34.609375 8.015625 
Q 37.546875 10.359375 37.546875 13.53125 
Q 37.546875 15.828125 35.796875 17.875 
Q 33.984375 19.921875 26.96875 22.921875 
Q 19.96875 25.921875 18.015625 27.15625 
Q 14.75 29.15625 13.078125 31.859375 
Q 11.421875 34.578125 11.421875 38.09375 
Q 11.421875 44.234375 16.296875 48.625 
Q 21.1875 53.03125 29.984375 53.03125 
Q 39.75 53.03125 44.84375 48.515625 
Q 49.953125 44 50.140625 36.625 
L 41.5 36.03125 
Q 41.3125 40.71875 38.1875 43.453125 
Q 35.0625 46.1875 29.34375 46.1875 
Q 24.75 46.1875 22.203125 44.09375 
Q 19.671875 42 19.671875 39.546875 
Q 19.671875 37.109375 21.875 35.25 
Q 23.34375 33.984375 29.4375 31.34375 
Q 39.59375 26.953125 42.234375 24.421875 
Q 46.4375 20.359375 46.4375 14.546875 
Q 46.4375 10.6875 44.0625 6.96875 
Q 41.703125 3.265625 36.84375 1.046875 
Q 31.984375 -1.171875 25.390625 -1.171875 
Q 16.40625 -1.171875 10.109375 3.265625 
Q 3.8125 7.71875 4.15625 17.71875 
z
" id="Arial-ItalicMT-73"/>
     <path d="M -1.03125 -19.875 
L 13.96875 51.859375 
L 22.125 51.859375 
L 20.609375 44.625 
Q 25.140625 49.359375 28.734375 51.1875 
Q 32.328125 53.03125 36.328125 53.03125 
Q 43.75 53.03125 48.625 47.625 
Q 53.515625 42.234375 53.515625 32.171875 
Q 53.515625 24.078125 50.828125 17.40625 
Q 48.140625 10.75 44.234375 6.6875 
Q 40.328125 2.640625 36.328125 0.734375 
Q 32.328125 -1.171875 28.125 -1.171875 
Q 18.796875 -1.171875 13.671875 8.296875 
L 7.8125 -19.875 
z
M 16.453125 21.1875 
Q 16.453125 15.375 17.28125 13.140625 
Q 18.5 9.96875 21.28125 8.015625 
Q 24.078125 6.0625 27.734375 6.0625 
Q 35.359375 6.0625 40.046875 14.625 
Q 44.734375 23.1875 44.734375 32.125 
Q 44.734375 38.71875 41.578125 42.3125 
Q 38.421875 45.90625 33.734375 45.90625 
Q 30.375 45.90625 27.484375 44.109375 
Q 24.609375 42.328125 22.140625 38.78125 
Q 19.671875 35.25 18.0625 30.125 
Q 16.453125 25 16.453125 21.1875 
z
" id="Arial-ItalicMT-70"/>
     <path d="M 23.96875 7.171875 
L 22.515625 -0.046875 
Q 19.34375 -0.875 16.359375 -0.875 
Q 11.078125 -0.875 7.953125 1.703125 
Q 5.609375 3.65625 5.609375 7.03125 
Q 5.609375 8.734375 6.890625 14.890625 
L 13.1875 45.015625 
L 6.203125 45.015625 
L 7.625 51.859375 
L 14.59375 51.859375 
L 17.28125 64.59375 
L 27.390625 70.703125 
L 23.4375 51.859375 
L 32.125 51.859375 
L 30.671875 45.015625 
L 22.015625 45.015625 
L 16.015625 16.359375 
Q 14.890625 10.890625 14.890625 9.8125 
Q 14.890625 8.25 15.796875 7.421875 
Q 16.703125 6.59375 18.75 6.59375 
Q 21.6875 6.59375 23.96875 7.171875 
z
" id="Arial-ItalicMT-74"/>
     <path id="Arial-ItalicMT-20"/>
     <path d="M 9.125 29.984375 
Q 9.125 49.125 20.1875 60.953125 
Q 31.25 72.796875 47.015625 72.796875 
Q 60.40625 72.796875 68.828125 64.078125 
Q 77.25 55.375 77.25 40.71875 
Q 77.25 30.28125 73 21.34375 
Q 69.828125 14.65625 64.984375 9.796875 
Q 60.15625 4.9375 54.640625 2.296875 
Q 47.3125 -1.21875 39.109375 -1.21875 
Q 30.515625 -1.21875 23.453125 2.875 
Q 16.40625 6.984375 12.765625 14.328125 
Q 9.125 21.6875 9.125 29.984375 
z
M 18.5625 29.5 
Q 18.5625 23.1875 21.171875 17.90625 
Q 23.78125 12.640625 28.953125 9.65625 
Q 34.125 6.6875 39.84375 6.6875 
Q 45.359375 6.6875 50.34375 9.296875 
Q 55.328125 11.921875 59.25 16.578125 
Q 63.1875 21.234375 65.453125 28.046875 
Q 67.71875 34.859375 67.71875 41.453125 
Q 67.71875 52.15625 61.734375 58.5 
Q 55.765625 64.84375 46.96875 64.84375 
Q 35.75 64.84375 27.15625 55.25 
Q 18.5625 45.65625 18.5625 29.5 
z
" id="Arial-ItalicMT-4f"/>
     <path d="M 3.265625 0 
L 14.109375 51.859375 
L 22.953125 51.859375 
L 21.140625 43.3125 
Q 26.078125 48.828125 29.953125 50.921875 
Q 33.84375 53.03125 38.375 53.03125 
Q 43.21875 53.03125 46.453125 50.46875 
Q 49.703125 47.90625 50.734375 43.3125 
Q 54.6875 48.1875 59.046875 50.609375 
Q 63.421875 53.03125 68.265625 53.03125 
Q 74.75 53.03125 78 49.953125 
Q 81.25 46.875 81.25 41.3125 
Q 81.25 38.921875 80.125 33.40625 
L 73.140625 0 
L 64.3125 0 
L 71.4375 34.28125 
Q 72.359375 38.484375 72.359375 40.28125 
Q 72.359375 42.828125 70.75 44.28125 
Q 69.140625 45.75 66.21875 45.75 
Q 62.25 45.75 58.140625 43.359375 
Q 54.046875 40.96875 51.78125 37.078125 
Q 49.515625 33.203125 47.796875 25.140625 
L 42.53125 0 
L 33.6875 0 
L 41.015625 35.015625 
Q 41.796875 38.578125 41.796875 40.09375 
Q 41.796875 42.625 40.203125 44.1875 
Q 38.625 45.75 36.078125 45.75 
Q 32.328125 45.75 28.203125 43.359375 
Q 24.078125 40.96875 21.484375 36.6875 
Q 18.890625 32.421875 17.234375 24.515625 
L 12.109375 0 
z
" id="Arial-ItalicMT-6d"/>
     <path d="M 15.875 61.578125 
L 17.96875 71.578125 
L 26.765625 71.578125 
L 24.65625 61.578125 
z
M 2.984375 0 
L 13.8125 51.859375 
L 22.65625 51.859375 
L 11.8125 0 
z
" id="Arial-ItalicMT-69"/>
     <path d="M 4.34375 0 
L 19.34375 71.578125 
L 41.5 71.578125 
Q 47.5625 71.578125 50.484375 71.09375 
Q 55.28125 70.265625 58.5625 68.1875 
Q 61.859375 66.109375 63.671875 62.515625 
Q 65.484375 58.9375 65.484375 54.59375 
Q 65.484375 48.6875 62.234375 44.1875 
Q 58.984375 39.703125 52.296875 37.359375 
Q 58.109375 35.453125 60.984375 31.609375 
Q 63.875 27.78125 63.875 22.65625 
Q 63.875 16.75 60.46875 11.328125 
Q 57.078125 5.90625 51.484375 2.953125 
Q 45.90625 0 39.015625 0 
z
M 22.515625 41.015625 
L 37.015625 41.015625 
Q 47.40625 41.015625 51.96875 44.328125 
Q 56.546875 47.65625 56.546875 54 
Q 56.546875 57.03125 55.125 59.21875 
Q 53.71875 61.421875 51.34375 62.421875 
Q 48.96875 63.421875 42.4375 63.421875 
L 27.203125 63.421875 
z
M 15.625 8.109375 
L 31.9375 8.109375 
Q 38.421875 8.109375 40.671875 8.546875 
Q 45.21875 9.328125 48.046875 11.203125 
Q 50.875 13.09375 52.484375 16.15625 
Q 54.109375 19.234375 54.109375 22.609375 
Q 54.109375 27.640625 50.953125 30.25 
Q 47.796875 32.859375 38.96875 32.859375 
L 20.796875 32.859375 
z
" id="Arial-ItalicMT-42"/>
     <path d="M 38.71875 9.375 
Q 29.390625 -1.171875 19.625 -1.171875 
Q 13.625 -1.171875 9.9375 2.265625 
Q 6.25 5.71875 6.25 10.6875 
Q 6.25 13.96875 7.90625 21.921875 
L 14.15625 51.859375 
L 23 51.859375 
L 16.0625 18.703125 
Q 15.1875 14.546875 15.1875 12.25 
Q 15.1875 9.328125 16.96875 7.6875 
Q 18.75 6.0625 22.21875 6.0625 
Q 25.921875 6.0625 29.46875 7.859375 
Q 33.015625 9.671875 35.578125 12.75 
Q 38.140625 15.828125 39.75 20.015625 
Q 40.828125 22.703125 42.234375 29.4375 
L 46.921875 51.859375 
L 55.765625 51.859375 
L 44.921875 0 
L 36.765625 0 
z
" id="Arial-ItalicMT-75"/>
     <path d="M 41.40625 17.625 
L 50 16.75 
Q 48.140625 10.359375 41.46875 4.59375 
Q 34.8125 -1.171875 25.59375 -1.171875 
Q 19.828125 -1.171875 15.015625 1.484375 
Q 10.203125 4.15625 7.6875 9.234375 
Q 5.171875 14.3125 5.171875 20.796875 
Q 5.171875 29.296875 9.09375 37.28125 
Q 13.03125 45.265625 19.28125 49.140625 
Q 25.53125 53.03125 32.8125 53.03125 
Q 42.09375 53.03125 47.625 47.265625 
Q 53.171875 41.5 53.171875 31.546875 
Q 53.171875 27.734375 52.484375 23.734375 
L 14.3125 23.734375 
Q 14.109375 22.21875 14.109375 21 
Q 14.109375 13.71875 17.453125 9.890625 
Q 20.796875 6.0625 25.640625 6.0625 
Q 30.171875 6.0625 34.5625 9.03125 
Q 38.96875 12.015625 41.40625 17.625 
z
M 15.71875 30.46875 
L 44.828125 30.46875 
Q 44.875 31.84375 44.875 32.421875 
Q 44.875 39.0625 41.546875 42.59375 
Q 38.234375 46.140625 33.015625 46.140625 
Q 27.34375 46.140625 22.671875 42.234375 
Q 18.015625 38.328125 15.71875 30.46875 
z
" id="Arial-ItalicMT-65"/>
     <path d="M 14.453125 41.84375 
L 16.546875 51.859375 
L 26.515625 51.859375 
L 24.46875 41.84375 
z
M 5.71875 0 
L 7.8125 10.015625 
L 17.828125 10.015625 
L 15.671875 0 
z
" id="Arial-ItalicMT-3a"/>
     <path d="M 24.078125 0 
L 35.40625 54.046875 
Q 28.078125 48.296875 14.796875 44.828125 
L 16.453125 52.828125 
Q 23.046875 55.46875 29.46875 59.71875 
Q 35.890625 63.96875 39.109375 67.140625 
Q 41.0625 69.09375 42.828125 71.875 
L 47.953125 71.875 
L 32.953125 0 
z
" id="Arial-ItalicMT-31"/>
     <path d="M 6.734375 16.40625 
L 15.046875 17.234375 
Q 15.875 11.234375 18.453125 8.6875 
Q 21.046875 6.15625 24.609375 6.15625 
Q 29.6875 6.15625 34.03125 10.546875 
Q 40.4375 17 43.453125 29.046875 
Q 39.015625 25.734375 35.5625 24.3125 
Q 32.125 22.90625 28.515625 22.90625 
Q 21.96875 22.90625 16.796875 27.296875 
Q 9.96875 33.015625 9.96875 43.703125 
Q 9.96875 55.8125 17.875 64.453125 
Q 24.65625 71.875 34.515625 71.875 
Q 43.40625 71.875 49.265625 65.296875 
Q 55.125 58.734375 55.125 46.734375 
Q 55.125 35.0625 51.21875 23.6875 
Q 46.578125 10.296875 38.671875 3.953125 
Q 32.234375 -1.21875 24.171875 -1.21875 
Q 16.75 -1.21875 12.03125 3.390625 
Q 7.328125 8.015625 6.734375 16.40625 
z
M 18.5 44.734375 
Q 18.5 37.984375 22.09375 33.984375 
Q 25.6875 29.984375 30.609375 29.984375 
Q 34.28125 29.984375 37.890625 32.46875 
Q 41.5 34.96875 44.09375 39.921875 
Q 46.6875 44.875 46.6875 50.09375 
Q 46.6875 54.203125 44.96875 57.71875 
Q 43.265625 61.234375 40.3125 63.015625 
Q 37.359375 64.796875 34.328125 64.796875 
Q 31.390625 64.796875 28.5625 63.234375 
Q 25.734375 61.671875 23.3125 58.640625 
Q 20.90625 55.609375 19.703125 51.671875 
Q 18.5 47.75 18.5 44.734375 
z
" id="Arial-ItalicMT-39"/>
     <path d="M 5.421875 0 
L 7.515625 10.015625 
L 17.578125 10.015625 
L 15.765625 1.265625 
Q 14.109375 -6.59375 10.609375 -10.25 
Q 7.125 -13.921875 2.390625 -14.453125 
L 3.21875 -10.59375 
Q 9.03125 -8.984375 10.890625 0 
z
" id="Arial-ItalicMT-2c"/>
     <path d="M 5.46875 18.75 
L 14.0625 19.828125 
Q 15.046875 12.3125 18.390625 9.0625 
Q 21.734375 5.8125 27.15625 5.8125 
Q 33.6875 5.8125 38.453125 10.5 
Q 43.21875 15.1875 43.21875 21.234375 
Q 43.21875 26.515625 39.640625 29.953125 
Q 36.078125 33.40625 30.078125 33.40625 
Q 29.390625 33.40625 27.25 33.203125 
L 28.765625 40.578125 
Q 30.03125 40.375 31.203125 40.375 
Q 38.765625 40.375 42.84375 44.0625 
Q 46.921875 47.75 46.921875 53.125 
Q 46.921875 58.0625 43.578125 61.421875 
Q 40.234375 64.796875 35.40625 64.796875 
Q 30.671875 64.796875 26.875 61.34375 
Q 23.09375 57.90625 22.015625 51.609375 
L 13.328125 53.375 
Q 15.484375 62.203125 21.578125 67.03125 
Q 27.6875 71.875 36.03125 71.875 
Q 44.828125 71.875 50.265625 66.546875 
Q 55.71875 61.234375 55.71875 53.46875 
Q 55.71875 47.796875 52.765625 43.578125 
Q 49.8125 39.359375 43.890625 36.578125 
Q 48.09375 34.078125 50.171875 30.5625 
Q 52.25 27.046875 52.25 22.515625 
Q 52.25 12.890625 45.046875 5.828125 
Q 37.84375 -1.21875 27.828125 -1.21875 
Q 18.109375 -1.21875 12.125 4.21875 
Q 6.15625 9.671875 5.46875 18.75 
z
" id="Arial-ItalicMT-33"/>
     <path d="M 6.984375 20.453125 
L 15.96875 21.34375 
Q 15.875 19.4375 15.875 19.046875 
Q 15.875 15.828125 17.5 12.546875 
Q 19.140625 9.28125 21.9375 7.546875 
Q 24.75 5.8125 27.875 5.8125 
Q 31.984375 5.8125 36.234375 8.640625 
Q 40.484375 11.46875 43.109375 16.890625 
Q 45.75 22.3125 45.75 27.640625 
Q 45.75 33.640625 42.203125 37.25 
Q 38.671875 40.875 32.90625 40.875 
Q 29.046875 40.875 25.609375 39.015625 
Q 22.171875 37.15625 19.1875 33.453125 
L 11.46875 33.984375 
L 22.265625 70.609375 
L 57.234375 70.609375 
L 55.515625 62.5 
L 28.328125 62.5 
L 22.953125 44.28125 
Q 25.984375 46.484375 29.171875 47.578125 
Q 32.375 48.6875 35.75 48.6875 
Q 43.953125 48.6875 49.21875 43.265625 
Q 54.5 37.84375 54.5 28.421875 
Q 54.5 20.171875 50.875 13.203125 
Q 47.265625 6.25 40.9375 2.515625 
Q 34.625 -1.21875 27.296875 -1.21875 
Q 21.140625 -1.21875 16.40625 1.5625 
Q 11.671875 4.34375 9.296875 9.21875 
Q 6.9375 14.109375 6.9375 19 
Q 6.9375 19.484375 6.984375 20.453125 
z
" id="Arial-ItalicMT-35"/>
     <path d="M 5.859375 0 
Q 7.234375 6.390625 9.640625 10.71875 
Q 12.0625 15.046875 16.0625 18.921875 
Q 20.0625 22.796875 31.5 31.9375 
Q 38.421875 37.453125 40.96875 40.09375 
Q 44.625 43.890625 46.296875 47.5625 
Q 47.40625 50.046875 47.40625 52.984375 
Q 47.40625 57.90625 43.921875 61.34375 
Q 40.4375 64.796875 35.359375 64.796875 
Q 30.328125 64.796875 26.5625 61.296875 
Q 22.796875 57.8125 21.1875 50.09375 
L 12.546875 51.375 
Q 13.8125 60.890625 19.9375 66.375 
Q 26.078125 71.875 35.203125 71.875 
Q 41.3125 71.875 46.265625 69.328125 
Q 51.21875 66.796875 53.703125 62.203125 
Q 56.203125 57.625 56.203125 52.734375 
Q 56.203125 45.609375 51.125 39.015625 
Q 48 34.90625 32.765625 22.859375 
Q 26.21875 17.671875 23.015625 14.34375 
Q 19.828125 11.03125 18.21875 8.109375 
L 50.25 8.109375 
L 48.53125 0 
z
" id="Arial-ItalicMT-32"/>
    </defs>
    <g transform="translate(126 473.0148)scale(0.12 -0.12)">
     <use xlink:href="#Arial-ItalicMT-4e"/>
     <use x="72.216797" xlink:href="#Arial-ItalicMT-6f"/>
     <use x="127.832031" xlink:href="#Arial-ItalicMT-6e"/>
     <use x="183.447266" xlink:href="#Arial-ItalicMT-2d"/>
     <use x="216.748047" xlink:href="#Arial-ItalicMT-54"/>
     <use x="277.722656" xlink:href="#Arial-ItalicMT-72"/>
     <use x="311.023438" xlink:href="#Arial-ItalicMT-61"/>
     <use x="366.638672" xlink:href="#Arial-ItalicMT-6e"/>
     <use x="422.253906" xlink:href="#Arial-ItalicMT-73"/>
     <use x="472.253906" xlink:href="#Arial-ItalicMT-70"/>
     <use x="527.869141" xlink:href="#Arial-ItalicMT-6f"/>
     <use x="583.484375" xlink:href="#Arial-ItalicMT-72"/>
     <use x="616.785156" xlink:href="#Arial-ItalicMT-74"/>
     <use x="644.568359" xlink:href="#Arial-ItalicMT-20"/>
     <use x="672.351562" xlink:href="#Arial-ItalicMT-2d"/>
     <use x="705.652344" xlink:href="#Arial-ItalicMT-20"/>
     <use x="733.435547" xlink:href="#Arial-ItalicMT-4f"/>
     <use x="811.21875" xlink:href="#Arial-ItalicMT-6d"/>
     <use x="894.519531" xlink:href="#Arial-ItalicMT-6e"/>
     <use x="950.134766" xlink:href="#Arial-ItalicMT-69"/>
     <use x="972.351562" xlink:href="#Arial-ItalicMT-20"/>
     <use x="1000.134766" xlink:href="#Arial-ItalicMT-42"/>
     <use x="1066.833984" xlink:href="#Arial-ItalicMT-75"/>
     <use x="1122.449219" xlink:href="#Arial-ItalicMT-73"/>
     <use x="1172.449219" xlink:href="#Arial-ItalicMT-65"/>
     <use x="1228.064453" xlink:href="#Arial-ItalicMT-73"/>
     <use x="1278.064453" xlink:href="#Arial-ItalicMT-3a"/>
     <use x="1305.847656" xlink:href="#Arial-ItalicMT-20"/>
     <use x="1333.630859" xlink:href="#Arial-ItalicMT-31"/>
     <use x="1389.246094" xlink:href="#Arial-ItalicMT-39"/>
     <use x="1444.861328" xlink:href="#Arial-ItalicMT-2c"/>
     <use x="1472.644531" xlink:href="#Arial-ItalicMT-33"/>
     <use x="1528.259766" xlink:href="#Arial-ItalicMT-35"/>
     <use x="1583.875" xlink:href="#Arial-ItalicMT-32"/>
    </g>
   </g>
   <g id="text_2">
    <g id="patch_15">
     <path d="M 120.96 444.381 
L 298.42125 444.381 
L 298.42125 423.180375 
L 120.96 423.180375 
z
" style="fill:none;opacity:0;"/>
    </g>
    <!-- Non-Transport - Others: 44,538 -->
    <defs>
     <path d="M 3.328125 0 
L 18.265625 71.578125 
L 27.09375 71.578125 
L 21.390625 44.09375 
Q 26.3125 48.875 30.5625 50.953125 
Q 34.8125 53.03125 39.3125 53.03125 
Q 45.75 53.03125 49.3125 49.625 
Q 52.875 46.234375 52.875 40.671875 
Q 52.875 37.9375 51.3125 30.609375 
L 44.921875 0 
L 36.078125 0 
L 42.671875 31.390625 
Q 44.09375 38.234375 44.09375 39.984375 
Q 44.09375 42.53125 42.328125 44.140625 
Q 40.578125 45.75 37.25 45.75 
Q 32.46875 45.75 28.125 43.234375 
Q 23.78125 40.71875 21.3125 36.34375 
Q 18.84375 31.984375 16.796875 22.265625 
L 12.15625 0 
z
" id="Arial-ItalicMT-68"/>
     <path d="M 29.890625 0 
L 33.734375 18.265625 
L 4.546875 18.265625 
L 6.390625 27 
L 46.484375 71.578125 
L 53.71875 71.578125 
L 44.1875 26.078125 
L 54.25 26.078125 
L 52.640625 18.265625 
L 42.578125 18.265625 
L 38.71875 0 
z
M 35.359375 26.078125 
L 41.609375 55.953125 
L 14.9375 26.078125 
z
" id="Arial-ItalicMT-34"/>
     <path d="M 22.5625 39.359375 
Q 18.5625 41.546875 16.546875 44.984375 
Q 14.546875 48.4375 14.546875 52.390625 
Q 14.546875 58.890625 19.234375 64.40625 
Q 25.484375 71.875 36.1875 71.875 
Q 45.609375 71.875 51.03125 66.8125 
Q 56.453125 61.765625 56.453125 54.4375 
Q 56.453125 49.21875 53.515625 45.015625 
Q 50.59375 40.828125 44.34375 38.328125 
Q 48.640625 35.640625 50.484375 32.625 
Q 52.875 28.65625 52.875 23.390625 
Q 52.875 13.765625 46.0625 6.25 
Q 39.265625 -1.265625 27.9375 -1.265625 
Q 18.890625 -1.265625 13.171875 4.296875 
Q 7.46875 9.859375 7.46875 18.21875 
Q 7.46875 26.078125 11.515625 31.71875 
Q 15.578125 37.359375 22.5625 39.359375 
z
M 23.25 52 
Q 23.25 47.40625 26.203125 44.59375 
Q 29.15625 41.796875 34.328125 41.796875 
Q 40.375 41.796875 44.15625 45.484375 
Q 47.953125 49.171875 47.953125 54.546875 
Q 47.953125 59.078125 45 61.9375 
Q 42.046875 64.796875 36.859375 64.796875 
Q 32.953125 64.796875 29.6875 62.984375 
Q 26.421875 61.1875 24.828125 58.078125 
Q 23.25 54.984375 23.25 52 
z
M 16.359375 17.484375 
Q 16.359375 14.5 17.796875 11.765625 
Q 19.234375 9.03125 22.15625 7.421875 
Q 25.09375 5.8125 28.859375 5.8125 
Q 36.03125 5.8125 40.484375 12.546875 
Q 44 17.828125 44 23.921875 
Q 44 28.90625 40.75 32.078125 
Q 37.5 35.25 32.234375 35.25 
Q 25.59375 35.25 20.96875 30.3125 
Q 16.359375 25.390625 16.359375 17.484375 
z
" id="Arial-ItalicMT-38"/>
    </defs>
    <g transform="translate(126 436.956)scale(0.12 -0.12)">
     <use xlink:href="#Arial-ItalicMT-4e"/>
     <use x="72.216797" xlink:href="#Arial-ItalicMT-6f"/>
     <use x="127.832031" xlink:href="#Arial-ItalicMT-6e"/>
     <use x="183.447266" xlink:href="#Arial-ItalicMT-2d"/>
     <use x="216.748047" xlink:href="#Arial-ItalicMT-54"/>
     <use x="277.722656" xlink:href="#Arial-ItalicMT-72"/>
     <use x="311.023438" xlink:href="#Arial-ItalicMT-61"/>
     <use x="366.638672" xlink:href="#Arial-ItalicMT-6e"/>
     <use x="422.253906" xlink:href="#Arial-ItalicMT-73"/>
     <use x="472.253906" xlink:href="#Arial-ItalicMT-70"/>
     <use x="527.869141" xlink:href="#Arial-ItalicMT-6f"/>
     <use x="583.484375" xlink:href="#Arial-ItalicMT-72"/>
     <use x="616.785156" xlink:href="#Arial-ItalicMT-74"/>
     <use x="644.568359" xlink:href="#Arial-ItalicMT-20"/>
     <use x="672.351562" xlink:href="#Arial-ItalicMT-2d"/>
     <use x="705.652344" xlink:href="#Arial-ItalicMT-20"/>
     <use x="733.435547" xlink:href="#Arial-ItalicMT-4f"/>
     <use x="811.21875" xlink:href="#Arial-ItalicMT-74"/>
     <use x="839.001953" xlink:href="#Arial-ItalicMT-68"/>
     <use x="894.617188" xlink:href="#Arial-ItalicMT-65"/>
     <use x="950.232422" xlink:href="#Arial-ItalicMT-72"/>
     <use x="983.533203" xlink:href="#Arial-ItalicMT-73"/>
     <use x="1033.533203" xlink:href="#Arial-ItalicMT-3a"/>
     <use x="1061.316406" xlink:href="#Arial-ItalicMT-20"/>
     <use x="1089.099609" xlink:href="#Arial-ItalicMT-34"/>
     <use x="1144.714844" xlink:href="#Arial-ItalicMT-34"/>
     <use x="1200.330078" xlink:href="#Arial-ItalicMT-2c"/>
     <use x="1228.113281" xlink:href="#Arial-ItalicMT-35"/>
     <use x="1283.728516" xlink:href="#Arial-ItalicMT-33"/>
     <use x="1339.34375" xlink:href="#Arial-ItalicMT-38"/>
    </g>
   </g>
   <g id="text_3">
    <g id="patch_16">
     <path d="M 120.96 408.3222 
L 276.4275 408.3222 
L 276.4275 387.2322 
L 120.96 387.2322 
z
" style="fill:none;opacity:0;"/>
    </g>
    <!-- Transport - Buses: 120,750 -->
    <defs>
     <path d="M 7.078125 23.484375 
Q 7.078125 32.5625 9.78125 41.9375 
Q 12.5 51.3125 15.8125 56.921875 
Q 19.140625 62.546875 22.703125 65.71875 
Q 26.265625 68.890625 29.703125 70.375 
Q 33.15625 71.875 37.359375 71.875 
Q 45.5625 71.875 51.046875 65.765625 
Q 56.546875 59.671875 56.546875 48.140625 
Q 56.546875 36.28125 52.734375 24.65625 
Q 48.25 10.890625 40.234375 4 
Q 34.078125 -1.21875 26.21875 -1.21875 
Q 18.171875 -1.21875 12.625 5.09375 
Q 7.078125 11.421875 7.078125 23.484375 
z
M 15.625 21.234375 
Q 15.625 14.65625 17.828125 10.9375 
Q 20.796875 5.8125 26.65625 5.8125 
Q 31.78125 5.8125 35.984375 10.453125 
Q 42.046875 17 45.09375 29.609375 
Q 48.140625 42.234375 48.140625 50.25 
Q 48.140625 57.953125 45.1875 61.375 
Q 42.234375 64.796875 37.40625 64.796875 
Q 33.890625 64.796875 30.828125 62.984375 
Q 27.78125 61.1875 25 56.78125 
Q 21.046875 50.59375 18.109375 38.234375 
Q 15.625 27.6875 15.625 21.234375 
z
" id="Arial-ItalicMT-30"/>
     <path d="M 14.5 0 
Q 15.671875 7.234375 19.484375 17.390625 
Q 24.03125 29.640625 31.390625 41.71875 
Q 38.765625 53.8125 47.796875 62.5 
L 12.109375 62.5 
L 13.8125 70.609375 
L 59.515625 70.609375 
L 57.859375 62.5 
Q 46.234375 52.296875 37.546875 36.1875 
Q 27.4375 17.578125 23.734375 0 
z
" id="Arial-ItalicMT-37"/>
    </defs>
    <g transform="translate(126 400.8972)scale(0.12 -0.12)">
     <use xlink:href="#Arial-ItalicMT-54"/>
     <use x="60.974609" xlink:href="#Arial-ItalicMT-72"/>
     <use x="94.275391" xlink:href="#Arial-ItalicMT-61"/>
     <use x="149.890625" xlink:href="#Arial-ItalicMT-6e"/>
     <use x="205.505859" xlink:href="#Arial-ItalicMT-73"/>
     <use x="255.505859" xlink:href="#Arial-ItalicMT-70"/>
     <use x="311.121094" xlink:href="#Arial-ItalicMT-6f"/>
     <use x="366.736328" xlink:href="#Arial-ItalicMT-72"/>
     <use x="400.037109" xlink:href="#Arial-ItalicMT-74"/>
     <use x="427.820312" xlink:href="#Arial-ItalicMT-20"/>
     <use x="455.603516" xlink:href="#Arial-ItalicMT-2d"/>
     <use x="488.904297" xlink:href="#Arial-ItalicMT-20"/>
     <use x="516.6875" xlink:href="#Arial-ItalicMT-42"/>
     <use x="583.386719" xlink:href="#Arial-ItalicMT-75"/>
     <use x="639.001953" xlink:href="#Arial-ItalicMT-73"/>
     <use x="689.001953" xlink:href="#Arial-ItalicMT-65"/>
     <use x="744.617188" xlink:href="#Arial-ItalicMT-73"/>
     <use x="794.617188" xlink:href="#Arial-ItalicMT-3a"/>
     <use x="822.400391" xlink:href="#Arial-ItalicMT-20"/>
     <use x="850.183594" xlink:href="#Arial-ItalicMT-31"/>
     <use x="905.798828" xlink:href="#Arial-ItalicMT-32"/>
     <use x="961.414062" xlink:href="#Arial-ItalicMT-30"/>
     <use x="1017.029297" xlink:href="#Arial-ItalicMT-2c"/>
     <use x="1044.8125" xlink:href="#Arial-ItalicMT-37"/>
     <use x="1100.427734" xlink:href="#Arial-ItalicMT-35"/>
     <use x="1156.042969" xlink:href="#Arial-ItalicMT-30"/>
    </g>
   </g>
   <g id="text_4">
    <g id="patch_17">
     <path d="M 120.96 372.2634 
L 271.72875 372.2634 
L 271.72875 351.1734 
L 120.96 351.1734 
z
" style="fill:none;opacity:0;"/>
    </g>
    <!-- Transport - Taxis: 163,390 -->
    <defs>
     <path d="M -0.140625 0 
L 22.40625 26.3125 
L 9.46875 51.859375 
L 19.234375 51.859375 
L 23.640625 42.625 
Q 26.078125 37.453125 28.03125 32.71875 
L 42.96875 51.859375 
L 53.765625 51.859375 
L 31.984375 25.640625 
L 45.0625 0 
L 35.296875 0 
L 30.125 10.546875 
Q 28.46875 13.921875 26.375 18.890625 
L 10.9375 0 
z
" id="Arial-ItalicMT-78"/>
     <path d="M 20.125 41.5 
Q 23.828125 44.578125 27.515625 46.109375 
Q 31.203125 47.65625 34.8125 47.65625 
Q 42.96875 47.65625 48.28125 42.09375 
Q 53.609375 36.53125 53.609375 27.09375 
Q 53.609375 14.9375 45.703125 6.25 
Q 38.875 -1.21875 29.109375 -1.21875 
Q 20.21875 -1.21875 14.28125 5.296875 
Q 8.34375 11.8125 8.34375 23.875 
Q 8.34375 34.671875 12.15625 46.1875 
Q 15.09375 55.03125 19.40625 60.765625 
Q 23.734375 66.5 28.59375 69.1875 
Q 33.453125 71.875 39.546875 71.875 
Q 46.875 71.875 51.515625 67.3125 
Q 56.15625 62.75 56.78125 54.25 
L 48.578125 53.46875 
Q 47.90625 59.28125 45.28125 61.859375 
Q 42.671875 64.453125 38.921875 64.453125 
Q 34.96875 64.453125 30.953125 61.375 
Q 26.953125 58.296875 24.0625 52.265625 
Q 21.1875 46.234375 20.125 41.5 
z
M 17.046875 20.125 
Q 17.046875 14.0625 20.796875 9.9375 
Q 24.5625 5.8125 29.296875 5.8125 
Q 32.625 5.8125 36.328125 8.328125 
Q 40.046875 10.84375 42.625 15.96875 
Q 45.21875 21.09375 45.21875 26.171875 
Q 45.21875 32.71875 41.625 36.640625 
Q 38.03125 40.578125 32.953125 40.578125 
Q 27.09375 40.578125 22.0625 34.84375 
Q 17.046875 29.109375 17.046875 20.125 
z
" id="Arial-ItalicMT-36"/>
    </defs>
    <g transform="translate(126 364.8384)scale(0.12 -0.12)">
     <use xlink:href="#Arial-ItalicMT-54"/>
     <use x="60.974609" xlink:href="#Arial-ItalicMT-72"/>
     <use x="94.275391" xlink:href="#Arial-ItalicMT-61"/>
     <use x="149.890625" xlink:href="#Arial-ItalicMT-6e"/>
     <use x="205.505859" xlink:href="#Arial-ItalicMT-73"/>
     <use x="255.505859" xlink:href="#Arial-ItalicMT-70"/>
     <use x="311.121094" xlink:href="#Arial-ItalicMT-6f"/>
     <use x="366.736328" xlink:href="#Arial-ItalicMT-72"/>
     <use x="400.037109" xlink:href="#Arial-ItalicMT-74"/>
     <use x="427.820312" xlink:href="#Arial-ItalicMT-20"/>
     <use x="455.603516" xlink:href="#Arial-ItalicMT-2d"/>
     <use x="488.904297" xlink:href="#Arial-ItalicMT-20"/>
     <use x="516.6875" xlink:href="#Arial-ItalicMT-54"/>
     <use x="577.630859" xlink:href="#Arial-ItalicMT-61"/>
     <use x="633.246094" xlink:href="#Arial-ItalicMT-78"/>
     <use x="683.246094" xlink:href="#Arial-ItalicMT-69"/>
     <use x="705.462891" xlink:href="#Arial-ItalicMT-73"/>
     <use x="755.462891" xlink:href="#Arial-ItalicMT-3a"/>
     <use x="783.246094" xlink:href="#Arial-ItalicMT-20"/>
     <use x="811.029297" xlink:href="#Arial-ItalicMT-31"/>
     <use x="866.644531" xlink:href="#Arial-ItalicMT-36"/>
     <use x="922.259766" xlink:href="#Arial-ItalicMT-33"/>
     <use x="977.875" xlink:href="#Arial-ItalicMT-2c"/>
     <use x="1005.658203" xlink:href="#Arial-ItalicMT-33"/>
     <use x="1061.273438" xlink:href="#Arial-ItalicMT-39"/>
     <use x="1116.888672" xlink:href="#Arial-ItalicMT-30"/>
    </g>
   </g>
   <g id="text_5">
    <g id="patch_18">
     <path d="M 120.96 336.2046 
L 309.07125 336.2046 
L 309.07125 315.1146 
L 120.96 315.1146 
z
" style="fill:none;opacity:0;"/>
    </g>
    <!-- Non-Transport - Trailers: 372,054 -->
    <defs>
     <path d="M 2.640625 0 
L 17.578125 71.578125 
L 26.421875 71.578125 
L 11.46875 0 
z
" id="Arial-ItalicMT-6c"/>
    </defs>
    <g transform="translate(126 328.7796)scale(0.12 -0.12)">
     <use xlink:href="#Arial-ItalicMT-4e"/>
     <use x="72.216797" xlink:href="#Arial-ItalicMT-6f"/>
     <use x="127.832031" xlink:href="#Arial-ItalicMT-6e"/>
     <use x="183.447266" xlink:href="#Arial-ItalicMT-2d"/>
     <use x="216.748047" xlink:href="#Arial-ItalicMT-54"/>
     <use x="277.722656" xlink:href="#Arial-ItalicMT-72"/>
     <use x="311.023438" xlink:href="#Arial-ItalicMT-61"/>
     <use x="366.638672" xlink:href="#Arial-ItalicMT-6e"/>
     <use x="422.253906" xlink:href="#Arial-ItalicMT-73"/>
     <use x="472.253906" xlink:href="#Arial-ItalicMT-70"/>
     <use x="527.869141" xlink:href="#Arial-ItalicMT-6f"/>
     <use x="583.484375" xlink:href="#Arial-ItalicMT-72"/>
     <use x="616.785156" xlink:href="#Arial-ItalicMT-74"/>
     <use x="644.568359" xlink:href="#Arial-ItalicMT-20"/>
     <use x="672.351562" xlink:href="#Arial-ItalicMT-2d"/>
     <use x="705.652344" xlink:href="#Arial-ItalicMT-20"/>
     <use x="733.435547" xlink:href="#Arial-ItalicMT-54"/>
     <use x="794.410156" xlink:href="#Arial-ItalicMT-72"/>
     <use x="827.710938" xlink:href="#Arial-ItalicMT-61"/>
     <use x="883.326172" xlink:href="#Arial-ItalicMT-69"/>
     <use x="905.542969" xlink:href="#Arial-ItalicMT-6c"/>
     <use x="927.759766" xlink:href="#Arial-ItalicMT-65"/>
     <use x="983.375" xlink:href="#Arial-ItalicMT-72"/>
     <use x="1016.675781" xlink:href="#Arial-ItalicMT-73"/>
     <use x="1066.675781" xlink:href="#Arial-ItalicMT-3a"/>
     <use x="1094.458984" xlink:href="#Arial-ItalicMT-20"/>
     <use x="1122.242188" xlink:href="#Arial-ItalicMT-33"/>
     <use x="1177.857422" xlink:href="#Arial-ItalicMT-37"/>
     <use x="1233.472656" xlink:href="#Arial-ItalicMT-32"/>
     <use x="1289.087891" xlink:href="#Arial-ItalicMT-2c"/>
     <use x="1316.871094" xlink:href="#Arial-ItalicMT-30"/>
     <use x="1372.486328" xlink:href="#Arial-ItalicMT-35"/>
     <use x="1428.101562" xlink:href="#Arial-ItalicMT-34"/>
    </g>
   </g>
   <g id="text_6">
    <g id="patch_19">
     <path d="M 120.96 300.1458 
L 413.780625 300.1458 
L 413.780625 279.0558 
L 120.96 279.0558 
z
" style="fill:none;opacity:0;"/>
    </g>
    <!-- Transport - Trucks and Multi-Axled Vehicles: 491,582 -->
    <defs>
     <path d="M 39.109375 18.890625 
L 47.953125 17.96875 
Q 44.625 8.25 38.5 3.53125 
Q 32.375 -1.171875 24.5625 -1.171875 
Q 16.109375 -1.171875 10.859375 4.296875 
Q 5.609375 9.765625 5.609375 19.578125 
Q 5.609375 28.078125 8.984375 36.28125 
Q 12.359375 44.484375 18.625 48.75 
Q 24.90625 53.03125 32.953125 53.03125 
Q 41.3125 53.03125 46.1875 48.3125 
Q 51.078125 43.609375 51.078125 35.84375 
L 42.390625 35.25 
Q 42.328125 40.1875 39.515625 42.96875 
Q 36.71875 45.75 32.125 45.75 
Q 26.8125 45.75 22.90625 42.375 
Q 19 39.015625 16.765625 32.15625 
Q 14.546875 25.296875 14.546875 18.953125 
Q 14.546875 12.3125 17.46875 8.984375 
Q 20.40625 5.671875 24.703125 5.671875 
Q 29 5.671875 32.921875 8.9375 
Q 36.859375 12.203125 39.109375 18.890625 
z
" id="Arial-ItalicMT-63"/>
     <path d="M 3.421875 0 
L 18.40625 71.578125 
L 27.203125 71.578125 
L 17.921875 27.203125 
L 43.703125 51.859375 
L 55.375 51.859375 
L 33.25 32.515625 
L 46.625 0 
L 36.96875 0 
L 26.609375 26.609375 
L 15.875 17.328125 
L 12.25 0 
z
" id="Arial-ItalicMT-6b"/>
     <path d="M 38.28125 7.515625 
Q 30.71875 -1.171875 22.46875 -1.171875 
Q 15.09375 -1.171875 10.1875 4.265625 
Q 5.28125 9.71875 5.28125 20.0625 
Q 5.28125 29.546875 9.15625 37.375 
Q 13.03125 45.21875 18.859375 49.125 
Q 24.703125 53.03125 30.5625 53.03125 
Q 40.234375 53.03125 45.171875 43.703125 
L 51.03125 71.578125 
L 59.8125 71.578125 
L 44.875 0 
L 36.71875 0 
z
M 14.0625 21.734375 
Q 14.0625 16.3125 15.140625 13.1875 
Q 16.21875 10.0625 18.796875 7.984375 
Q 21.390625 5.90625 25 5.90625 
Q 31 5.90625 35.890625 12.15625 
Q 42.4375 20.453125 42.4375 32.671875 
Q 42.4375 38.8125 39.203125 42.28125 
Q 35.984375 45.75 31.109375 45.75 
Q 27.9375 45.75 25.3125 44.328125 
Q 22.703125 42.921875 20.140625 39.53125 
Q 17.578125 36.140625 15.8125 30.90625 
Q 14.0625 25.6875 14.0625 21.734375 
z
" id="Arial-ItalicMT-64"/>
     <path d="M 4.390625 0 
L 19.34375 71.578125 
L 31.109375 71.578125 
L 38.328125 25.203125 
Q 39.75 16.0625 40.1875 7.671875 
Q 43.171875 14.890625 50.140625 27.25 
L 75.25 71.578125 
L 87.203125 71.578125 
L 72.265625 0 
L 62.84375 0 
L 70.3125 34.8125 
Q 72.90625 46.875 77.734375 61.859375 
Q 74.65625 54.890625 70.125 46.828125 
L 43.453125 0 
L 34.234375 0 
L 27.046875 45.90625 
Q 26.078125 52.203125 25.640625 60.59375 
Q 24.421875 51.171875 23.25 45.65625 
L 13.71875 0 
z
" id="Arial-ItalicMT-4d"/>
     <path d="M -2 0 
L 38.578125 71.578125 
L 49.859375 71.578125 
L 61.671875 0 
L 52.390625 0 
L 48.921875 20.609375 
L 19.96875 20.609375 
L 8.5 0 
z
M 24.078125 27.984375 
L 47.75 27.984375 
L 44.96875 45.953125 
Q 43.359375 56.640625 42.96875 63.765625 
Q 40.53125 57.625 35.84375 49.171875 
z
" id="Arial-ItalicMT-41"/>
     <path d="M 26.171875 0 
L 12.40625 71.578125 
L 21.625 71.578125 
L 29.9375 28.90625 
Q 32.234375 17.28125 32.90625 10.15625 
Q 37.40625 19.34375 40.28125 24.703125 
L 65.828125 71.578125 
L 75.6875 71.578125 
L 36.421875 0 
z
" id="Arial-ItalicMT-56"/>
    </defs>
    <g transform="translate(126 292.7208)scale(0.12 -0.12)">
     <use xlink:href="#Arial-ItalicMT-54"/>
     <use x="60.974609" xlink:href="#Arial-ItalicMT-72"/>
     <use x="94.275391" xlink:href="#Arial-ItalicMT-61"/>
     <use x="149.890625" xlink:href="#Arial-ItalicMT-6e"/>
     <use x="205.505859" xlink:href="#Arial-ItalicMT-73"/>
     <use x="255.505859" xlink:href="#Arial-ItalicMT-70"/>
     <use x="311.121094" xlink:href="#Arial-ItalicMT-6f"/>
     <use x="366.736328" xlink:href="#Arial-ItalicMT-72"/>
     <use x="400.037109" xlink:href="#Arial-ItalicMT-74"/>
     <use x="427.820312" xlink:href="#Arial-ItalicMT-20"/>
     <use x="455.603516" xlink:href="#Arial-ItalicMT-2d"/>
     <use x="488.904297" xlink:href="#Arial-ItalicMT-20"/>
     <use x="516.6875" xlink:href="#Arial-ItalicMT-54"/>
     <use x="577.662109" xlink:href="#Arial-ItalicMT-72"/>
     <use x="610.962891" xlink:href="#Arial-ItalicMT-75"/>
     <use x="666.578125" xlink:href="#Arial-ItalicMT-63"/>
     <use x="716.578125" xlink:href="#Arial-ItalicMT-6b"/>
     <use x="766.578125" xlink:href="#Arial-ItalicMT-73"/>
     <use x="816.578125" xlink:href="#Arial-ItalicMT-20"/>
     <use x="844.361328" xlink:href="#Arial-ItalicMT-61"/>
     <use x="899.976562" xlink:href="#Arial-ItalicMT-6e"/>
     <use x="955.591797" xlink:href="#Arial-ItalicMT-64"/>
     <use x="1011.207031" xlink:href="#Arial-ItalicMT-20"/>
     <use x="1038.990234" xlink:href="#Arial-ItalicMT-4d"/>
     <use x="1122.291016" xlink:href="#Arial-ItalicMT-75"/>
     <use x="1177.90625" xlink:href="#Arial-ItalicMT-6c"/>
     <use x="1200.123047" xlink:href="#Arial-ItalicMT-74"/>
     <use x="1227.90625" xlink:href="#Arial-ItalicMT-69"/>
     <use x="1250.123047" xlink:href="#Arial-ItalicMT-2d"/>
     <use x="1283.423828" xlink:href="#Arial-ItalicMT-41"/>
     <use x="1350.123047" xlink:href="#Arial-ItalicMT-78"/>
     <use x="1400.123047" xlink:href="#Arial-ItalicMT-6c"/>
     <use x="1422.339844" xlink:href="#Arial-ItalicMT-65"/>
     <use x="1477.955078" xlink:href="#Arial-ItalicMT-64"/>
     <use x="1533.570312" xlink:href="#Arial-ItalicMT-20"/>
     <use x="1561.353516" xlink:href="#Arial-ItalicMT-56"/>
     <use x="1628.005859" xlink:href="#Arial-ItalicMT-65"/>
     <use x="1683.621094" xlink:href="#Arial-ItalicMT-68"/>
     <use x="1739.236328" xlink:href="#Arial-ItalicMT-69"/>
     <use x="1761.453125" xlink:href="#Arial-ItalicMT-63"/>
     <use x="1811.453125" xlink:href="#Arial-ItalicMT-6c"/>
     <use x="1833.669922" xlink:href="#Arial-ItalicMT-65"/>
     <use x="1889.285156" xlink:href="#Arial-ItalicMT-73"/>
     <use x="1939.285156" xlink:href="#Arial-ItalicMT-3a"/>
     <use x="1967.068359" xlink:href="#Arial-ItalicMT-20"/>
     <use x="1994.851562" xlink:href="#Arial-ItalicMT-34"/>
     <use x="2050.466797" xlink:href="#Arial-ItalicMT-39"/>
     <use x="2106.082031" xlink:href="#Arial-ItalicMT-31"/>
     <use x="2161.697266" xlink:href="#Arial-ItalicMT-2c"/>
     <use x="2189.480469" xlink:href="#Arial-ItalicMT-35"/>
     <use x="2245.095703" xlink:href="#Arial-ItalicMT-38"/>
     <use x="2300.710938" xlink:href="#Arial-ItalicMT-32"/>
    </g>
   </g>
   <g id="text_7">
    <g id="patch_20">
     <path d="M 120.96 264.087 
L 301.104375 264.087 
L 301.104375 242.997 
L 120.96 242.997 
z
" style="fill:none;opacity:0;"/>
    </g>
    <!-- Non-Transport - Jeeps: 496,255 -->
    <defs>
     <path d="M 4.046875 20.84375 
L 12.9375 21.484375 
Q 12.15625 17.328125 12.15625 15.375 
Q 12.15625 11.421875 14.625 9.046875 
Q 17.09375 6.6875 21.484375 6.6875 
Q 24.65625 6.6875 27.078125 8.125 
Q 29.5 9.578125 31 12.59375 
Q 32.171875 14.890625 33.40625 20.84375 
L 44.046875 71.578125 
L 53.5625 71.578125 
L 42.671875 19.28125 
Q 40.375 8.25 35 3.515625 
Q 29.640625 -1.21875 21.296875 -1.21875 
Q 12.40625 -1.21875 7.859375 2.875 
Q 3.328125 6.984375 3.328125 14.40625 
Q 3.328125 17.671875 4.046875 20.84375 
z
" id="Arial-ItalicMT-4a"/>
    </defs>
    <g transform="translate(126 256.662)scale(0.12 -0.12)">
     <use xlink:href="#Arial-ItalicMT-4e"/>
     <use x="72.216797" xlink:href="#Arial-ItalicMT-6f"/>
     <use x="127.832031" xlink:href="#Arial-ItalicMT-6e"/>
     <use x="183.447266" xlink:href="#Arial-ItalicMT-2d"/>
     <use x="216.748047" xlink:href="#Arial-ItalicMT-54"/>
     <use x="277.722656" xlink:href="#Arial-ItalicMT-72"/>
     <use x="311.023438" xlink:href="#Arial-ItalicMT-61"/>
     <use x="366.638672" xlink:href="#Arial-ItalicMT-6e"/>
     <use x="422.253906" xlink:href="#Arial-ItalicMT-73"/>
     <use x="472.253906" xlink:href="#Arial-ItalicMT-70"/>
     <use x="527.869141" xlink:href="#Arial-ItalicMT-6f"/>
     <use x="583.484375" xlink:href="#Arial-ItalicMT-72"/>
     <use x="616.785156" xlink:href="#Arial-ItalicMT-74"/>
     <use x="644.568359" xlink:href="#Arial-ItalicMT-20"/>
     <use x="672.351562" xlink:href="#Arial-ItalicMT-2d"/>
     <use x="705.652344" xlink:href="#Arial-ItalicMT-20"/>
     <use x="733.435547" xlink:href="#Arial-ItalicMT-4a"/>
     <use x="783.435547" xlink:href="#Arial-ItalicMT-65"/>
     <use x="839.050781" xlink:href="#Arial-ItalicMT-65"/>
     <use x="894.666016" xlink:href="#Arial-ItalicMT-70"/>
     <use x="950.28125" xlink:href="#Arial-ItalicMT-73"/>
     <use x="1000.28125" xlink:href="#Arial-ItalicMT-3a"/>
     <use x="1028.064453" xlink:href="#Arial-ItalicMT-20"/>
     <use x="1055.847656" xlink:href="#Arial-ItalicMT-34"/>
     <use x="1111.462891" xlink:href="#Arial-ItalicMT-39"/>
     <use x="1167.078125" xlink:href="#Arial-ItalicMT-36"/>
     <use x="1222.693359" xlink:href="#Arial-ItalicMT-2c"/>
     <use x="1250.476562" xlink:href="#Arial-ItalicMT-32"/>
     <use x="1306.091797" xlink:href="#Arial-ItalicMT-35"/>
     <use x="1361.707031" xlink:href="#Arial-ItalicMT-35"/>
    </g>
   </g>
   <g id="text_8">
    <g id="patch_21">
     <path d="M 120.96 228.0282 
L 313.0725 228.0282 
L 313.0725 206.9382 
L 120.96 206.9382 
z
" style="fill:none;opacity:0;"/>
    </g>
    <!-- Non-Transport - Tractors: 572,395 -->
    <g transform="translate(126 220.6032)scale(0.12 -0.12)">
     <use xlink:href="#Arial-ItalicMT-4e"/>
     <use x="72.216797" xlink:href="#Arial-ItalicMT-6f"/>
     <use x="127.832031" xlink:href="#Arial-ItalicMT-6e"/>
     <use x="183.447266" xlink:href="#Arial-ItalicMT-2d"/>
     <use x="216.748047" xlink:href="#Arial-ItalicMT-54"/>
     <use x="277.722656" xlink:href="#Arial-ItalicMT-72"/>
     <use x="311.023438" xlink:href="#Arial-ItalicMT-61"/>
     <use x="366.638672" xlink:href="#Arial-ItalicMT-6e"/>
     <use x="422.253906" xlink:href="#Arial-ItalicMT-73"/>
     <use x="472.253906" xlink:href="#Arial-ItalicMT-70"/>
     <use x="527.869141" xlink:href="#Arial-ItalicMT-6f"/>
     <use x="583.484375" xlink:href="#Arial-ItalicMT-72"/>
     <use x="616.785156" xlink:href="#Arial-ItalicMT-74"/>
     <use x="644.568359" xlink:href="#Arial-ItalicMT-20"/>
     <use x="672.351562" xlink:href="#Arial-ItalicMT-2d"/>
     <use x="705.652344" xlink:href="#Arial-ItalicMT-20"/>
     <use x="733.435547" xlink:href="#Arial-ItalicMT-54"/>
     <use x="794.410156" xlink:href="#Arial-ItalicMT-72"/>
     <use x="827.710938" xlink:href="#Arial-ItalicMT-61"/>
     <use x="883.326172" xlink:href="#Arial-ItalicMT-63"/>
     <use x="933.326172" xlink:href="#Arial-ItalicMT-74"/>
     <use x="961.109375" xlink:href="#Arial-ItalicMT-6f"/>
     <use x="1016.724609" xlink:href="#Arial-ItalicMT-72"/>
     <use x="1050.025391" xlink:href="#Arial-ItalicMT-73"/>
     <use x="1100.025391" xlink:href="#Arial-ItalicMT-3a"/>
     <use x="1127.808594" xlink:href="#Arial-ItalicMT-20"/>
     <use x="1155.591797" xlink:href="#Arial-ItalicMT-35"/>
     <use x="1211.207031" xlink:href="#Arial-ItalicMT-37"/>
     <use x="1266.822266" xlink:href="#Arial-ItalicMT-32"/>
     <use x="1322.4375" xlink:href="#Arial-ItalicMT-2c"/>
     <use x="1350.220703" xlink:href="#Arial-ItalicMT-33"/>
     <use x="1405.835938" xlink:href="#Arial-ItalicMT-39"/>
     <use x="1461.451172" xlink:href="#Arial-ItalicMT-35"/>
    </g>
   </g>
   <g id="text_9">
    <g id="patch_22">
     <path d="M 120.96 192.110025 
L 414.47625 192.110025 
L 414.47625 170.768775 
L 120.96 170.768775 
z
" style="fill:none;opacity:0;"/>
    </g>
    <!-- Transport - Light Motor Vehicle (Passenger): 695,619 -->
    <defs>
     <path d="M 4 0 
L 18.953125 71.578125 
L 28.515625 71.578125 
L 15.28125 8.109375 
L 52.4375 8.109375 
L 50.734375 0 
z
" id="Arial-ItalicMT-4c"/>
     <path d="M 2.828125 -4.6875 
L 11.765625 -5.515625 
Q 11.671875 -8.546875 12.5 -10.0625 
Q 13.328125 -11.578125 15.140625 -12.40625 
Q 17.53125 -13.484375 21.34375 -13.484375 
Q 29.34375 -13.484375 32.859375 -9.328125 
Q 35.15625 -6.546875 37.109375 2.78125 
L 37.984375 6.984375 
Q 31.109375 0 23.34375 0 
Q 15.484375 0 10.1875 5.78125 
Q 4.890625 11.578125 4.890625 22.171875 
Q 4.890625 30.90625 9.0625 38.234375 
Q 13.234375 45.5625 18.984375 49.296875 
Q 24.75 53.03125 30.859375 53.03125 
Q 41.0625 53.03125 46.578125 43.359375 
L 48.34375 51.859375 
L 56.453125 51.859375 
L 46 1.8125 
Q 44.28125 -6.453125 41.5 -11.0625 
Q 38.71875 -15.671875 33.765625 -18.203125 
Q 28.8125 -20.75 22.3125 -20.75 
Q 16.0625 -20.75 11.546875 -19.140625 
Q 7.03125 -17.53125 4.8125 -14.421875 
Q 2.59375 -11.328125 2.59375 -7.328125 
Q 2.59375 -6.109375 2.828125 -4.6875 
z
M 13.875 22.953125 
Q 13.875 17.625 14.890625 14.9375 
Q 16.359375 11.1875 19.0625 9.203125 
Q 21.78125 7.234375 25.09375 7.234375 
Q 29.4375 7.234375 33.734375 10.28125 
Q 38.03125 13.328125 40.6875 19.71875 
Q 43.359375 26.125 43.359375 31.9375 
Q 43.359375 38.328125 39.8125 42.109375 
Q 36.28125 45.90625 31.0625 45.90625 
Q 27.828125 45.90625 24.796875 44.171875 
Q 21.78125 42.4375 19.15625 38.890625 
Q 16.546875 35.359375 15.203125 30.421875 
Q 13.875 25.484375 13.875 22.953125 
z
" id="Arial-ItalicMT-67"/>
     <path d="M 16.109375 -21.046875 
Q 8.453125 -4.25 8.453125 13.484375 
Q 8.453125 25.296875 11.546875 35.46875 
Q 14.65625 45.65625 21 55.609375 
Q 25.203125 62.25 34.421875 72.796875 
L 41.3125 72.796875 
Q 35.59375 66.703125 29.21875 55.609375 
Q 22.859375 44.53125 19.96875 33.828125 
Q 17.09375 23.140625 17.09375 12.359375 
Q 17.09375 -3.765625 22.703125 -21.046875 
z
" id="Arial-ItalicMT-28"/>
     <path d="M 4.296875 0 
L 19.28125 71.578125 
L 49.171875 71.578125 
Q 56.9375 71.578125 60.8125 69.796875 
Q 64.703125 68.015625 67.234375 63.6875 
Q 69.78125 59.375 69.78125 54 
Q 69.78125 49.5625 67.96875 44.96875 
Q 66.15625 40.375 63.390625 37.390625 
Q 60.640625 34.421875 57.8125 32.90625 
Q 54.984375 31.390625 51.765625 30.671875 
Q 44.875 29.046875 37.84375 29.046875 
L 19.921875 29.046875 
L 13.875 0 
z
M 21.625 37.15625 
L 37.40625 37.15625 
Q 46.578125 37.15625 50.875 39.125 
Q 55.171875 41.109375 57.765625 45.15625 
Q 60.359375 49.21875 60.359375 53.765625 
Q 60.359375 57.28125 58.984375 59.5 
Q 57.625 61.71875 55.125 62.765625 
Q 52.640625 63.8125 45.5625 63.8125 
L 27.203125 63.8125 
z
" id="Arial-ItalicMT-50"/>
     <path d="M 19.828125 72.796875 
Q 27.546875 56 27.546875 38.328125 
Q 27.546875 26.46875 24.4375 16.3125 
Q 21.34375 6.15625 14.984375 -3.859375 
Q 10.75 -10.5 1.5625 -21.046875 
L -5.328125 -21.046875 
Q 0.34375 -14.890625 6.734375 -3.796875 
Q 13.140625 7.28125 15.984375 17.9375 
Q 18.84375 28.609375 18.84375 39.453125 
Q 18.84375 55.5625 13.234375 72.796875 
z
" id="Arial-ItalicMT-29"/>
    </defs>
    <g transform="translate(126 184.5444)scale(0.12 -0.12)">
     <use xlink:href="#Arial-ItalicMT-54"/>
     <use x="60.974609" xlink:href="#Arial-ItalicMT-72"/>
     <use x="94.275391" xlink:href="#Arial-ItalicMT-61"/>
     <use x="149.890625" xlink:href="#Arial-ItalicMT-6e"/>
     <use x="205.505859" xlink:href="#Arial-ItalicMT-73"/>
     <use x="255.505859" xlink:href="#Arial-ItalicMT-70"/>
     <use x="311.121094" xlink:href="#Arial-ItalicMT-6f"/>
     <use x="366.736328" xlink:href="#Arial-ItalicMT-72"/>
     <use x="400.037109" xlink:href="#Arial-ItalicMT-74"/>
     <use x="427.820312" xlink:href="#Arial-ItalicMT-20"/>
     <use x="455.603516" xlink:href="#Arial-ItalicMT-2d"/>
     <use x="488.904297" xlink:href="#Arial-ItalicMT-20"/>
     <use x="516.6875" xlink:href="#Arial-ItalicMT-4c"/>
     <use x="572.302734" xlink:href="#Arial-ItalicMT-69"/>
     <use x="594.519531" xlink:href="#Arial-ItalicMT-67"/>
     <use x="650.134766" xlink:href="#Arial-ItalicMT-68"/>
     <use x="705.75" xlink:href="#Arial-ItalicMT-74"/>
     <use x="733.533203" xlink:href="#Arial-ItalicMT-20"/>
     <use x="761.316406" xlink:href="#Arial-ItalicMT-4d"/>
     <use x="844.617188" xlink:href="#Arial-ItalicMT-6f"/>
     <use x="900.232422" xlink:href="#Arial-ItalicMT-74"/>
     <use x="928.015625" xlink:href="#Arial-ItalicMT-6f"/>
     <use x="983.630859" xlink:href="#Arial-ItalicMT-72"/>
     <use x="1016.931641" xlink:href="#Arial-ItalicMT-20"/>
     <use x="1044.714844" xlink:href="#Arial-ItalicMT-56"/>
     <use x="1111.367188" xlink:href="#Arial-ItalicMT-65"/>
     <use x="1166.982422" xlink:href="#Arial-ItalicMT-68"/>
     <use x="1222.597656" xlink:href="#Arial-ItalicMT-69"/>
     <use x="1244.814453" xlink:href="#Arial-ItalicMT-63"/>
     <use x="1294.814453" xlink:href="#Arial-ItalicMT-6c"/>
     <use x="1317.03125" xlink:href="#Arial-ItalicMT-65"/>
     <use x="1372.646484" xlink:href="#Arial-ItalicMT-20"/>
     <use x="1400.429688" xlink:href="#Arial-ItalicMT-28"/>
     <use x="1433.730469" xlink:href="#Arial-ItalicMT-50"/>
     <use x="1500.429688" xlink:href="#Arial-ItalicMT-61"/>
     <use x="1556.044922" xlink:href="#Arial-ItalicMT-73"/>
     <use x="1606.044922" xlink:href="#Arial-ItalicMT-73"/>
     <use x="1656.044922" xlink:href="#Arial-ItalicMT-65"/>
     <use x="1711.660156" xlink:href="#Arial-ItalicMT-6e"/>
     <use x="1767.275391" xlink:href="#Arial-ItalicMT-67"/>
     <use x="1822.890625" xlink:href="#Arial-ItalicMT-65"/>
     <use x="1878.505859" xlink:href="#Arial-ItalicMT-72"/>
     <use x="1911.806641" xlink:href="#Arial-ItalicMT-29"/>
     <use x="1945.107422" xlink:href="#Arial-ItalicMT-3a"/>
     <use x="1972.890625" xlink:href="#Arial-ItalicMT-20"/>
     <use x="2000.673828" xlink:href="#Arial-ItalicMT-36"/>
     <use x="2056.289062" xlink:href="#Arial-ItalicMT-39"/>
     <use x="2111.904297" xlink:href="#Arial-ItalicMT-35"/>
     <use x="2167.519531" xlink:href="#Arial-ItalicMT-2c"/>
     <use x="2195.302734" xlink:href="#Arial-ItalicMT-36"/>
     <use x="2250.917969" xlink:href="#Arial-ItalicMT-31"/>
     <use x="2306.533203" xlink:href="#Arial-ItalicMT-39"/>
    </g>
   </g>
   <g id="text_10">
    <g id="patch_23">
     <path d="M 120.96 156.051225 
L 392.46375 156.051225 
L 392.46375 134.709975 
L 120.96 134.709975 
z
" style="fill:none;opacity:0;"/>
    </g>
    <!-- Transport - Light Motor Vehicle (Goods): 868,632 -->
    <defs>
     <path d="M 40.96875 28.21875 
L 42.671875 36.328125 
L 74.03125 36.328125 
L 67.921875 7.171875 
Q 62.015625 3.46875 54.4375 1.125 
Q 46.875 -1.21875 39.546875 -1.21875 
Q 23.921875 -1.21875 16.21875 8.203125 
Q 9.71875 16.15625 9.71875 28.65625 
Q 9.71875 41.546875 15.40625 52.125 
Q 21.09375 62.703125 29.75 67.75 
Q 38.421875 72.796875 49.03125 72.796875 
Q 56.640625 72.796875 62.6875 70.03125 
Q 68.75 67.28125 71.96875 62.671875 
Q 75.203125 58.0625 76.609375 50.640625 
L 67.234375 49.609375 
Q 65.71875 56.984375 60.953125 60.90625 
Q 56.203125 64.84375 48.734375 64.84375 
Q 40.96875 64.84375 34.21875 60.609375 
Q 27.484375 56.390625 23.453125 47.875 
Q 19.4375 39.359375 19.4375 28.515625 
Q 19.4375 17.71875 24.75 12.203125 
Q 30.078125 6.6875 39.453125 6.6875 
Q 48.78125 6.6875 59.515625 12.84375 
L 62.75 28.21875 
z
" id="Arial-ItalicMT-47"/>
    </defs>
    <g transform="translate(126 148.4856)scale(0.12 -0.12)">
     <use xlink:href="#Arial-ItalicMT-54"/>
     <use x="60.974609" xlink:href="#Arial-ItalicMT-72"/>
     <use x="94.275391" xlink:href="#Arial-ItalicMT-61"/>
     <use x="149.890625" xlink:href="#Arial-ItalicMT-6e"/>
     <use x="205.505859" xlink:href="#Arial-ItalicMT-73"/>
     <use x="255.505859" xlink:href="#Arial-ItalicMT-70"/>
     <use x="311.121094" xlink:href="#Arial-ItalicMT-6f"/>
     <use x="366.736328" xlink:href="#Arial-ItalicMT-72"/>
     <use x="400.037109" xlink:href="#Arial-ItalicMT-74"/>
     <use x="427.820312" xlink:href="#Arial-ItalicMT-20"/>
     <use x="455.603516" xlink:href="#Arial-ItalicMT-2d"/>
     <use x="488.904297" xlink:href="#Arial-ItalicMT-20"/>
     <use x="516.6875" xlink:href="#Arial-ItalicMT-4c"/>
     <use x="572.302734" xlink:href="#Arial-ItalicMT-69"/>
     <use x="594.519531" xlink:href="#Arial-ItalicMT-67"/>
     <use x="650.134766" xlink:href="#Arial-ItalicMT-68"/>
     <use x="705.75" xlink:href="#Arial-ItalicMT-74"/>
     <use x="733.533203" xlink:href="#Arial-ItalicMT-20"/>
     <use x="761.316406" xlink:href="#Arial-ItalicMT-4d"/>
     <use x="844.617188" xlink:href="#Arial-ItalicMT-6f"/>
     <use x="900.232422" xlink:href="#Arial-ItalicMT-74"/>
     <use x="928.015625" xlink:href="#Arial-ItalicMT-6f"/>
     <use x="983.630859" xlink:href="#Arial-ItalicMT-72"/>
     <use x="1016.931641" xlink:href="#Arial-ItalicMT-20"/>
     <use x="1044.714844" xlink:href="#Arial-ItalicMT-56"/>
     <use x="1111.367188" xlink:href="#Arial-ItalicMT-65"/>
     <use x="1166.982422" xlink:href="#Arial-ItalicMT-68"/>
     <use x="1222.597656" xlink:href="#Arial-ItalicMT-69"/>
     <use x="1244.814453" xlink:href="#Arial-ItalicMT-63"/>
     <use x="1294.814453" xlink:href="#Arial-ItalicMT-6c"/>
     <use x="1317.03125" xlink:href="#Arial-ItalicMT-65"/>
     <use x="1372.646484" xlink:href="#Arial-ItalicMT-20"/>
     <use x="1400.429688" xlink:href="#Arial-ItalicMT-28"/>
     <use x="1433.730469" xlink:href="#Arial-ItalicMT-47"/>
     <use x="1511.513672" xlink:href="#Arial-ItalicMT-6f"/>
     <use x="1567.128906" xlink:href="#Arial-ItalicMT-6f"/>
     <use x="1622.744141" xlink:href="#Arial-ItalicMT-64"/>
     <use x="1678.359375" xlink:href="#Arial-ItalicMT-73"/>
     <use x="1728.359375" xlink:href="#Arial-ItalicMT-29"/>
     <use x="1761.660156" xlink:href="#Arial-ItalicMT-3a"/>
     <use x="1789.443359" xlink:href="#Arial-ItalicMT-20"/>
     <use x="1817.226562" xlink:href="#Arial-ItalicMT-38"/>
     <use x="1872.841797" xlink:href="#Arial-ItalicMT-36"/>
     <use x="1928.457031" xlink:href="#Arial-ItalicMT-38"/>
     <use x="1984.072266" xlink:href="#Arial-ItalicMT-2c"/>
     <use x="2011.855469" xlink:href="#Arial-ItalicMT-36"/>
     <use x="2067.470703" xlink:href="#Arial-ItalicMT-33"/>
     <use x="2123.085938" xlink:href="#Arial-ItalicMT-32"/>
    </g>
   </g>
   <g id="text_11">
    <g id="patch_24">
     <path d="M 120.96 119.8518 
L 304.41375 119.8518 
L 304.41375 98.651175 
L 120.96 98.651175 
z
" style="fill:none;opacity:0;"/>
    </g>
    <!-- Non-Transport - Cars: 3,113,773 -->
    <defs>
     <path d="M 60.296875 25.203125 
L 69.78125 23.875 
Q 65.28125 11.46875 56.6875 5.125 
Q 48.09375 -1.21875 37.40625 -1.21875 
Q 24.359375 -1.21875 16.71875 6.734375 
Q 9.078125 14.703125 9.078125 29.546875 
Q 9.078125 48.875 20.703125 61.53125 
Q 31.0625 72.796875 46.4375 72.796875 
Q 57.8125 72.796875 64.859375 66.6875 
Q 71.921875 60.59375 73.046875 50.296875 
L 64.109375 49.46875 
Q 62.703125 57.234375 58.28125 61.0625 
Q 53.859375 64.890625 46.875 64.890625 
Q 33.734375 64.890625 25.640625 53.21875 
Q 18.609375 43.171875 18.609375 29.34375 
Q 18.609375 18.3125 24.015625 12.5 
Q 29.4375 6.6875 38.140625 6.6875 
Q 45.5625 6.6875 51.5625 11.515625 
Q 57.5625 16.359375 60.296875 25.203125 
z
" id="Arial-ItalicMT-43"/>
    </defs>
    <g transform="translate(126 112.4268)scale(0.12 -0.12)">
     <use xlink:href="#Arial-ItalicMT-4e"/>
     <use x="72.216797" xlink:href="#Arial-ItalicMT-6f"/>
     <use x="127.832031" xlink:href="#Arial-ItalicMT-6e"/>
     <use x="183.447266" xlink:href="#Arial-ItalicMT-2d"/>
     <use x="216.748047" xlink:href="#Arial-ItalicMT-54"/>
     <use x="277.722656" xlink:href="#Arial-ItalicMT-72"/>
     <use x="311.023438" xlink:href="#Arial-ItalicMT-61"/>
     <use x="366.638672" xlink:href="#Arial-ItalicMT-6e"/>
     <use x="422.253906" xlink:href="#Arial-ItalicMT-73"/>
     <use x="472.253906" xlink:href="#Arial-ItalicMT-70"/>
     <use x="527.869141" xlink:href="#Arial-ItalicMT-6f"/>
     <use x="583.484375" xlink:href="#Arial-ItalicMT-72"/>
     <use x="616.785156" xlink:href="#Arial-ItalicMT-74"/>
     <use x="644.568359" xlink:href="#Arial-ItalicMT-20"/>
     <use x="672.351562" xlink:href="#Arial-ItalicMT-2d"/>
     <use x="705.652344" xlink:href="#Arial-ItalicMT-20"/>
     <use x="733.435547" xlink:href="#Arial-ItalicMT-43"/>
     <use x="805.652344" xlink:href="#Arial-ItalicMT-61"/>
     <use x="861.267578" xlink:href="#Arial-ItalicMT-72"/>
     <use x="894.568359" xlink:href="#Arial-ItalicMT-73"/>
     <use x="944.568359" xlink:href="#Arial-ItalicMT-3a"/>
     <use x="972.351562" xlink:href="#Arial-ItalicMT-20"/>
     <use x="1000.134766" xlink:href="#Arial-ItalicMT-33"/>
     <use x="1055.75" xlink:href="#Arial-ItalicMT-2c"/>
     <use x="1083.533203" xlink:href="#Arial-ItalicMT-31"/>
     <use x="1139.039062" xlink:href="#Arial-ItalicMT-31"/>
     <use x="1194.654297" xlink:href="#Arial-ItalicMT-33"/>
     <use x="1250.269531" xlink:href="#Arial-ItalicMT-2c"/>
     <use x="1278.052734" xlink:href="#Arial-ItalicMT-37"/>
     <use x="1333.667969" xlink:href="#Arial-ItalicMT-37"/>
     <use x="1389.283203" xlink:href="#Arial-ItalicMT-33"/>
    </g>
   </g>
   <g id="text_12">
    <g id="patch_25">
     <path d="M 120.96 83.793 
L 362.435625 83.793 
L 362.435625 62.703 
L 120.96 62.703 
z
" style="fill:none;opacity:0;"/>
    </g>
    <!-- Non-Transport - Two Wheelers: 18,603,835 -->
    <defs>
     <path d="M 13.1875 0 
L 7.765625 51.859375 
L 16.265625 51.859375 
L 18.609375 28.5625 
L 19.53125 15.484375 
Q 19.625 14.015625 19.828125 9.578125 
Q 21.296875 14.546875 22.3125 17.203125 
Q 23.34375 19.875 25.59375 24.8125 
L 37.9375 51.859375 
L 47.5625 51.859375 
L 49.265625 25.921875 
Q 49.65625 20.015625 49.75 10.15625 
Q 52.203125 16.703125 57.71875 28.328125 
L 68.84375 51.859375 
L 77.6875 51.859375 
L 52.34375 0 
L 43.171875 0 
L 41.21875 30.421875 
Q 41.015625 33.25 40.921875 41.453125 
Q 38.921875 36.234375 36.1875 30.171875 
L 22.46875 0 
z
" id="Arial-ItalicMT-77"/>
     <path d="M 16.890625 0 
L 12.5 71.578125 
L 22.21875 71.578125 
L 23.875 36.1875 
Q 24.03125 33.640625 24.359375 22.40625 
Q 24.46875 19.28125 24.46875 18.015625 
Q 24.46875 17.1875 24.421875 13.1875 
Q 30.375 25.390625 33.015625 30.375 
L 54.78125 71.578125 
L 64.65625 71.578125 
L 67.046875 29.734375 
Q 67.4375 22.5625 67.578125 12.453125 
Q 68.453125 14.9375 70.703125 19.875 
Q 74.265625 27.828125 75.984375 31.25 
L 96.390625 71.578125 
L 106.15625 71.578125 
L 69.734375 0 
L 59.46875 0 
L 57.078125 43.359375 
Q 56.734375 48.921875 56.546875 57.03125 
Q 53.5625 50.25 51.5625 46.484375 
L 26.765625 0 
z
" id="Arial-ItalicMT-57"/>
    </defs>
    <g transform="translate(126 76.368)scale(0.12 -0.12)">
     <use xlink:href="#Arial-ItalicMT-4e"/>
     <use x="72.216797" xlink:href="#Arial-ItalicMT-6f"/>
     <use x="127.832031" xlink:href="#Arial-ItalicMT-6e"/>
     <use x="183.447266" xlink:href="#Arial-ItalicMT-2d"/>
     <use x="216.748047" xlink:href="#Arial-ItalicMT-54"/>
     <use x="277.722656" xlink:href="#Arial-ItalicMT-72"/>
     <use x="311.023438" xlink:href="#Arial-ItalicMT-61"/>
     <use x="366.638672" xlink:href="#Arial-ItalicMT-6e"/>
     <use x="422.253906" xlink:href="#Arial-ItalicMT-73"/>
     <use x="472.253906" xlink:href="#Arial-ItalicMT-70"/>
     <use x="527.869141" xlink:href="#Arial-ItalicMT-6f"/>
     <use x="583.484375" xlink:href="#Arial-ItalicMT-72"/>
     <use x="616.785156" xlink:href="#Arial-ItalicMT-74"/>
     <use x="644.568359" xlink:href="#Arial-ItalicMT-20"/>
     <use x="672.351562" xlink:href="#Arial-ItalicMT-2d"/>
     <use x="705.652344" xlink:href="#Arial-ItalicMT-20"/>
     <use x="733.435547" xlink:href="#Arial-ItalicMT-54"/>
     <use x="794.410156" xlink:href="#Arial-ItalicMT-77"/>
     <use x="866.626953" xlink:href="#Arial-ItalicMT-6f"/>
     <use x="922.242188" xlink:href="#Arial-ItalicMT-20"/>
     <use x="950.025391" xlink:href="#Arial-ItalicMT-57"/>
     <use x="1044.410156" xlink:href="#Arial-ItalicMT-68"/>
     <use x="1100.025391" xlink:href="#Arial-ItalicMT-65"/>
     <use x="1155.640625" xlink:href="#Arial-ItalicMT-65"/>
     <use x="1211.255859" xlink:href="#Arial-ItalicMT-6c"/>
     <use x="1233.472656" xlink:href="#Arial-ItalicMT-65"/>
     <use x="1289.087891" xlink:href="#Arial-ItalicMT-72"/>
     <use x="1322.388672" xlink:href="#Arial-ItalicMT-73"/>
     <use x="1372.388672" xlink:href="#Arial-ItalicMT-3a"/>
     <use x="1400.171875" xlink:href="#Arial-ItalicMT-20"/>
     <use x="1427.955078" xlink:href="#Arial-ItalicMT-31"/>
     <use x="1483.570312" xlink:href="#Arial-ItalicMT-38"/>
     <use x="1539.185547" xlink:href="#Arial-ItalicMT-2c"/>
     <use x="1566.96875" xlink:href="#Arial-ItalicMT-36"/>
     <use x="1622.583984" xlink:href="#Arial-ItalicMT-30"/>
     <use x="1678.199219" xlink:href="#Arial-ItalicMT-33"/>
     <use x="1733.814453" xlink:href="#Arial-ItalicMT-2c"/>
     <use x="1761.597656" xlink:href="#Arial-ItalicMT-38"/>
     <use x="1817.212891" xlink:href="#Arial-ItalicMT-33"/>
     <use x="1872.828125" xlink:href="#Arial-ItalicMT-35"/>
    </g>
   </g>
  </g>
 </g>
 <defs>
  <clipPath id="p3271c30921">
   <rect height="434.88" width="781.2" x="126" y="69.12"/>
  </clipPath>
 </defs>
</svg>
